<?xml version="1.0" ?><svg viewBox="0 0 32 32" xmlns="http://www.w3.org/2000/svg"><g id="Crown"><path d="M29.34,21.55,30.75,7.44a.75.75,0,0,0-1.29-.6l-2.9,3-2.7-3.41a.75.75,0,0,0-.59-.29.77.77,0,0,0-.59.29l-2.94,3.72-3.2-3.31a.78.78,0,0,0-1.08,0l-3.2,3.31L9.32,6.43a.78.78,0,0,0-1.18,0L5.44,9.84l-2.9-3a.75.75,0,0,0-1.29.6L2.66,21.55a2.23,2.23,0,0,0,.82,4.31h25a2.23,2.23,0,0,0,.82-4.31ZM23.27,8.1l2.23,2.82L23,13.51l-2.21-2.28ZM8.73,8.1l2.48,3.13L9,13.51,6.5,10.92Zm-.27,7a.78.78,0,0,0,1.08,0L16,8.44l6.46,6.67a.78.78,0,0,0,1.08,0L29,9.43l-1.2,12H4.16L3,9.43Zm20.06,9.25h-25a.74.74,0,0,1-.73-.74.73.73,0,0,1,.73-.72h25a.73.73,0,0,1,.73.72A.74.74,0,0,1,28.52,24.36Z"/><path d="M15.47,18.51a.75.75,0,0,0,1.06,0l3.06-3.06a.74.74,0,0,0,0-1.06l-3.06-3.06a.74.74,0,0,0-1.06,0l-3.06,3.06a.74.74,0,0,0,0,1.06ZM16,12.92l2,2-2,2-2-2Z"/><path d="M5.12,19.61a.75.75,0,0,0,.85.63.74.74,0,0,0,.64-.84.75.75,0,0,0-1.49.21Z"/><path d="M4.74,16.85a.74.74,0,0,0,.84.64.75.75,0,1,0-.84-.64Z"/><path d="M5.19,14.74h0a.75.75,0,0,0,.64-.85h0a.75.75,0,1,0-1.48.21h0A.75.75,0,0,0,5.19,14.74Z"/><path d="M26,20.24a.75.75,0,0,0,.85-.63.75.75,0,1,0-1.49-.21A.74.74,0,0,0,26,20.24Z"/><path d="M26.42,17.49a.74.74,0,0,0,.84-.64.75.75,0,0,0-.63-.85.75.75,0,1,0-.21,1.49Z"/><path d="M26.81,14.74h0a.75.75,0,0,0,.84-.64h0a.75.75,0,1,0-1.48-.21h0A.75.75,0,0,0,26.81,14.74Z"/></g></svg>